<svg width="512" height="512" viewBox="0 0 512 512" fill="none" xmlns="http://www.w3.org/2000/svg">
  <defs>
    <linearGradient id="bg" x1="72" y1="56" x2="440" y2="456" gradientUnits="userSpaceOnUse">
      <stop stop-color="#13202B"/>
      <stop offset="0.48" stop-color="#17293A"/>
      <stop offset="1" stop-color="#0C141C"/>
    </linearGradient>
    <linearGradient id="flare" x1="110" y1="92" x2="402" y2="402" gradientUnits="userSpaceOnUse">
      <stop stop-color="#37E6D4"/>
      <stop offset="1" stop-color="#1E78FF"/>
    </linearGradient>
    <linearGradient id="warm" x1="294" y1="160" x2="396" y2="266" gradientUnits="userSpaceOnUse">
      <stop stop-color="#FFB066"/>
      <stop offset="1" stop-color="#FF6A3D"/>
    </linearGradient>
    <filter id="shadow" x="54" y="42" width="404" height="432" filterUnits="userSpaceOnUse" color-interpolation-filters="sRGB">
      <feDropShadow dx="0" dy="26" stdDeviation="22" flood-color="#02070C" flood-opacity="0.32"/>
    </filter>
  </defs>

  <rect width="512" height="512" rx="120" fill="url(#bg)"/>
  <circle cx="118" cy="106" r="96" fill="#37E6D4" fill-opacity="0.12"/>
  <circle cx="426" cy="94" r="82" fill="#FF7A45" fill-opacity="0.14"/>

  <g filter="url(#shadow)">
    <path d="M142 90C142 76.7452 152.745 66 166 66H282.088C288.453 66 294.557 68.5286 299.059 73.0294L370.971 144.941C375.471 149.443 378 155.547 378 161.912V346C378 359.255 367.255 370 354 370H166C152.745 370 142 359.255 142 346V90Z" fill="#F8FBFF"/>
    <path d="M286 68V132C286 145.255 296.745 156 310 156H374" fill="#E3ECF7"/>
    <path d="M286 68V132C286 145.255 296.745 156 310 156H374" stroke="#C6D6E8" stroke-width="12" stroke-linejoin="round"/>
    <rect x="176" y="164" width="88" height="20" rx="10" fill="#1E78FF" fill-opacity="0.16"/>
    <rect x="176" y="206" width="168" height="20" rx="10" fill="#102131" fill-opacity="0.12"/>
    <rect x="176" y="248" width="126" height="20" rx="10" fill="#102131" fill-opacity="0.12"/>
    <rect x="176" y="290" width="148" height="20" rx="10" fill="#102131" fill-opacity="0.12"/>
  </g>

  <g>
    <path d="M154 328C154 312.536 166.536 300 182 300H334C349.464 300 362 312.536 362 328V350C362 365.464 349.464 378 334 378H182C166.536 378 154 365.464 154 350V328Z" fill="#0E1721" fill-opacity="0.92" stroke="url(#flare)" stroke-width="8"/>
    <path d="M198 339H236" stroke="#37E6D4" stroke-width="14" stroke-linecap="round"/>
    <path d="M278 321L244 339L278 357" stroke="url(#warm)" stroke-width="16" stroke-linecap="round" stroke-linejoin="round"/>
    <path d="M296 339H318" stroke="#7CB7FF" stroke-width="14" stroke-linecap="round"/>
  </g>
</svg>
